<svg width="32" height="32" viewBox="0 0 32 32" fill="none" xmlns="http://www.w3.org/2000/svg">
<path d="M1 13.9619C1 12.7266 1.2321 11.5698 1.69629 10.4917C2.16048 9.40609 2.80436 8.4515 3.62793 7.62793C4.4515 6.80436 5.40234 6.16048 6.48047 5.69629C7.56608 5.2321 8.72656 5 9.96191 5C11.1973 5 12.3577 5.2321 13.4434 5.69629C14.529 6.16048 15.4798 6.80436 16.2959 7.62793C17.1195 8.4515 17.7633 9.40609 18.2275 10.4917C18.6917 11.5698 18.9238 12.7266 18.9238 13.9619C18.9238 14.9876 18.7591 15.9609 18.4297 16.8818C18.1077 17.8027 17.6585 18.6375 17.082 19.3862L23.2588 25.5854C23.3711 25.6978 23.4572 25.8325 23.5171 25.9897C23.5845 26.1545 23.6182 26.3267 23.6182 26.5063C23.6182 26.7534 23.562 26.978 23.4497 27.1802C23.3449 27.3823 23.1952 27.5396 23.0005 27.6519C22.8058 27.7716 22.5812 27.8315 22.3267 27.8315C22.147 27.8315 21.9785 27.8016 21.8213 27.7417C21.6641 27.6818 21.5181 27.5845 21.3833 27.4497L15.1729 21.2393C14.4391 21.7633 13.6305 22.1751 12.7471 22.4746C11.8711 22.7741 10.9427 22.9238 9.96191 22.9238C8.72656 22.9238 7.56608 22.6917 6.48047 22.2275C5.40234 21.7633 4.4515 21.1195 3.62793 20.2959C2.80436 19.4723 2.16048 18.5215 1.69629 17.4434C1.2321 16.3577 1 15.1973 1 13.9619ZM2.92041 13.9619C2.92041 14.9352 3.10384 15.8486 3.4707 16.7021C3.83757 17.5482 4.34294 18.2931 4.98682 18.937C5.6307 19.5809 6.37565 20.0863 7.22168 20.4531C8.0752 20.82 8.98861 21.0034 9.96191 21.0034C10.9352 21.0034 11.8449 20.82 12.6909 20.4531C13.5444 20.0863 14.2931 19.5809 14.937 18.937C15.5884 18.2931 16.0938 17.5482 16.4531 16.7021C16.82 15.8486 17.0034 14.9352 17.0034 13.9619C17.0034 12.9886 16.82 12.0789 16.4531 11.2329C16.0938 10.3794 15.5884 9.6307 14.937 8.98682C14.2931 8.33545 13.5444 7.83008 12.6909 7.4707C11.8449 7.10384 10.9352 6.92041 9.96191 6.92041C8.98861 6.92041 8.0752 7.10384 7.22168 7.4707C6.37565 7.83008 5.6307 8.33545 4.98682 8.98682C4.34294 9.6307 3.83757 10.3794 3.4707 11.2329C3.10384 12.0789 2.92041 12.9886 2.92041 13.9619ZM6.40186 13.2544C6.17725 13.2544 5.99007 13.1758 5.84033 13.0186C5.69808 12.8613 5.62695 12.6742 5.62695 12.457C5.62695 12.2399 5.69808 12.0565 5.84033 11.9067C5.99007 11.757 6.17725 11.6821 6.40186 11.6821H13.522C13.7466 11.6821 13.9338 11.757 14.0835 11.9067C14.2332 12.0565 14.3081 12.2399 14.3081 12.457C14.3081 12.6742 14.2332 12.8613 14.0835 13.0186C13.9338 13.1758 13.7466 13.2544 13.522 13.2544H6.40186ZM6.40186 16.2417C6.17725 16.2417 5.99007 16.1668 5.84033 16.0171C5.69808 15.8674 5.62695 15.6839 5.62695 15.4668C5.62695 15.2497 5.69808 15.0625 5.84033 14.9053C5.99007 14.748 6.17725 14.6694 6.40186 14.6694H11.5791C11.7962 14.6694 11.9797 14.748 12.1294 14.9053C12.2866 15.0625 12.3652 15.2497 12.3652 15.4668C12.3652 15.6839 12.2866 15.8674 12.1294 16.0171C11.9797 16.1668 11.7962 16.2417 11.5791 16.2417H6.40186ZM26.6055 5.84229C27.7809 5.84229 28.6606 6.13428 29.2446 6.71826C29.8361 7.29476 30.1318 8.16325 30.1318 9.32373V23.0361C30.1318 24.1966 29.8361 25.0651 29.2446 25.6416C28.6606 26.2256 27.7809 26.5176 26.6055 26.5176H24.8423C24.8423 26.1732 24.7786 25.8438 24.6514 25.5293C24.5316 25.2223 24.3519 24.9491 24.1123 24.7095H26.5718C27.1258 24.7095 27.5563 24.5635 27.8633 24.2715C28.1702 23.972 28.3237 23.5303 28.3237 22.9463V9.41357C28.3237 8.82959 28.1702 8.3916 27.8633 8.09961C27.5563 7.80013 27.1258 7.65039 26.5718 7.65039H13.4771V5.84229H26.6055ZM7.19922 24.7095H16.9697L18.7778 26.5176H7.16553C5.99756 26.5176 5.11784 26.2256 4.52637 25.6416C3.9349 25.0651 3.63916 24.1966 3.63916 23.0361V19.6558H5.44727V22.9463C5.44727 23.5303 5.59701 23.972 5.89648 24.2715C6.20345 24.5635 6.6377 24.7095 7.19922 24.7095Z" fill="#190A1A"/>
</svg>
