<svg width="32" height="32" viewBox="0 0 32 32" fill="none" xmlns="http://www.w3.org/2000/svg">
<path d="M16.4551 27.9102C14.8903 27.9102 13.4154 27.6107 12.0303 27.0117C10.6527 26.4128 9.43604 25.5854 8.38037 24.5298C7.32471 23.4741 6.4974 22.2575 5.89844 20.8799C5.29948 19.4948 5 18.0199 5 16.4551C5 14.8903 5.29948 13.4191 5.89844 12.0415C6.4974 10.6564 7.32096 9.43604 8.36914 8.38037C9.4248 7.32471 10.6414 6.4974 12.019 5.89844C13.4041 5.29948 14.8791 5 16.4438 5C18.0086 5 19.4836 5.29948 20.8687 5.89844C22.2537 6.4974 23.4741 7.32471 24.5298 8.38037C25.5854 9.43604 26.4128 10.6564 27.0117 12.0415C27.6107 13.4191 27.9102 14.8903 27.9102 16.4551C27.9102 18.0199 27.6107 19.4948 27.0117 20.8799C26.4128 22.2575 25.5854 23.4741 24.5298 24.5298C23.4741 25.5854 22.2537 26.4128 20.8687 27.0117C19.491 27.6107 18.0199 27.9102 16.4551 27.9102ZM11.1655 22.3398H21.7446C21.9767 22.3398 22.1489 22.2725 22.2612 22.1377C22.3735 21.9954 22.4297 21.8195 22.4297 21.6099C22.4297 21.2954 22.3062 20.8874 22.0591 20.3857C21.8195 19.8766 21.4526 19.3675 20.9585 18.8584C20.4718 18.3493 19.8542 17.9225 19.1055 17.5781C18.3568 17.2337 17.4733 17.0615 16.4551 17.0615C15.4368 17.0615 14.5534 17.2337 13.8047 17.5781C13.056 17.9225 12.4346 18.3493 11.9404 18.8584C11.4538 19.3675 11.0869 19.8766 10.8398 20.3857C10.6003 20.8874 10.4805 21.2954 10.4805 21.6099C10.4805 21.8195 10.5366 21.9954 10.6489 22.1377C10.7612 22.2725 10.9334 22.3398 11.1655 22.3398ZM16.4551 16.1069C17.0016 16.1144 17.4995 15.9759 17.9487 15.6914C18.3979 15.4069 18.7573 15.0176 19.0269 14.5234C19.2964 14.0293 19.4312 13.4753 19.4312 12.8613C19.4312 12.2848 19.2964 11.757 19.0269 11.2778C18.7573 10.7912 18.3979 10.4056 17.9487 10.1211C17.4995 9.8291 17.0016 9.68311 16.4551 9.68311C15.9085 9.68311 15.4106 9.8291 14.9614 10.1211C14.5122 10.4056 14.1528 10.7912 13.8833 11.2778C13.6138 11.757 13.479 12.2848 13.479 12.8613C13.479 13.4753 13.6138 14.0293 13.8833 14.5234C14.1528 15.0101 14.5122 15.3957 14.9614 15.6802C15.4106 15.9647 15.9085 16.1069 16.4551 16.1069Z" fill="#DF009E"/>
</svg>
