<svg width="20" height="20" viewBox="0 0 20 20" fill="none" xmlns="http://www.w3.org/2000/svg">
<path d="M18.6609 14.6423L11.8555 2.85658C11.468 2.18516 10.7752 1.78516 10.0002 1.78516C9.22517 1.78516 8.53231 2.18516 8.14481 2.85658L1.33945 14.6423C0.951953 15.3137 0.951953 16.1137 1.33945 16.7852C1.72695 17.4566 2.41981 17.8566 3.19481 17.8566H16.8037C17.5787 17.8566 18.2716 17.4566 18.6591 16.7852C19.0466 16.1137 19.0466 15.3137 18.6591 14.6423H18.6609ZM10.0002 15.4459C9.55552 15.4459 9.1966 15.0869 9.1966 14.6423C9.1966 14.1977 9.55552 13.8387 10.0002 13.8387C10.4448 13.8387 10.8037 14.1977 10.8037 14.6423C10.8037 15.0869 10.4448 15.4459 10.0002 15.4459ZM10.8037 11.9637C10.8037 12.4084 10.4448 12.7673 10.0002 12.7673C9.55552 12.7673 9.1966 12.4084 9.1966 11.9637V7.49944C9.1966 7.0548 9.55552 6.69587 10.0002 6.69587C10.4448 6.69587 10.8037 7.0548 10.8037 7.49944V11.9637Z" fill="#E67711"/>
</svg>
