<svg width="32" height="32" viewBox="0 0 32 32" fill="none" xmlns="http://www.w3.org/2000/svg">
<path d="M19.2954 25.7759V18.3525C19.2954 18.0905 19.2168 17.8846 19.0596 17.7349C18.9098 17.5776 18.7039 17.499 18.4419 17.499H14.3652C14.1107 17.499 13.901 17.5776 13.7363 17.7349C13.5791 17.8846 13.5005 18.0905 13.5005 18.3525V25.7759H19.2954ZM6.50391 25.1021V16.2075L15.7354 8.46973C16.1846 8.08789 16.6338 8.08789 17.083 8.46973L26.3145 16.2075V25.1021C26.3145 25.8882 26.0898 26.4984 25.6406 26.9326C25.1989 27.3669 24.585 27.584 23.7988 27.584H9.03076C8.23714 27.584 7.61572 27.3669 7.1665 26.9326C6.72477 26.4984 6.50391 25.8882 6.50391 25.1021ZM3 15.0845C3 14.7925 3.11979 14.5492 3.35938 14.3545L15.0615 4.52783C15.4808 4.17594 15.93 4 16.4092 4C16.8958 4 17.3488 4.17594 17.7681 4.52783L29.459 14.3545C29.6911 14.5492 29.8071 14.8037 29.8071 15.1182C29.8071 15.3877 29.7135 15.6011 29.5264 15.7583C29.3392 15.908 29.1146 15.9829 28.8525 15.9829C28.6953 15.9829 28.5493 15.9455 28.4146 15.8706C28.2873 15.7957 28.1675 15.7134 28.0552 15.6235L16.8135 6.18994C16.6862 6.07764 16.5514 6.02148 16.4092 6.02148C16.2744 6.02148 16.1434 6.07764 16.0161 6.18994L4.77441 15.6235C4.65462 15.7134 4.52734 15.7957 4.39258 15.8706C4.2653 15.9455 4.12305 15.9829 3.96582 15.9829C3.66634 15.9829 3.4305 15.8931 3.2583 15.7134C3.0861 15.5262 3 15.3166 3 15.0845ZM23.4956 10.0195V7.21191C23.4956 6.96484 23.5705 6.77018 23.7202 6.62793C23.87 6.47819 24.0646 6.40332 24.3042 6.40332H25.5059C25.7529 6.40332 25.9476 6.47819 26.0898 6.62793C26.2396 6.77018 26.3145 6.96484 26.3145 7.21191V12.4004L23.4956 10.0195Z" fill="#DF009E"/>
</svg>
