<svg width="24" height="24" viewBox="0 0 24 24" fill="none" xmlns="http://www.w3.org/2000/svg">
<path d="M12.0006 1.71484C6.32842 1.71484 1.71484 6.32842 1.71484 12.0006C1.71484 17.6727 6.32842 22.2863 12.0006 22.2863C17.6727 22.2863 22.2863 17.6727 22.2863 12.0006C22.2863 6.32842 17.6727 1.71484 12.0006 1.71484ZM16.6248 10.0998L12.3456 14.512C11.8356 15.037 11.1541 15.3263 10.4234 15.3263C10.417 15.3263 10.4106 15.3263 10.402 15.3263C9.6627 15.3198 8.97699 15.022 8.47127 14.4841L6.93699 12.8534C6.5727 12.4656 6.58984 11.8548 6.9777 11.4906C7.36556 11.1263 7.97627 11.1434 8.34056 11.5313L9.87484 13.162C10.0163 13.312 10.2091 13.3956 10.4148 13.3977C10.6184 13.402 10.8156 13.3184 10.9591 13.1706L15.2384 8.75842C15.6091 8.37699 16.2198 8.36627 16.6013 8.73699C16.9827 9.1077 16.9934 9.71842 16.6227 10.0998H16.6248Z" fill="#190A1A"/>
</svg>
