<svg width="44" height="44" viewBox="0 0 44 44" fill="none" xmlns="http://www.w3.org/2000/svg">
<path d="M27.8571 28.9298C27.5828 28.9298 27.3085 28.8248 27.0985 28.6169L13.3842 14.9026C12.9663 14.4848 12.9663 13.8055 13.3842 13.3876C13.8021 12.9698 14.4813 12.9698 14.8992 13.3876L28.6135 27.1019C29.0313 27.5198 29.0313 28.199 28.6135 28.6169C28.4035 28.8269 28.1292 28.9298 27.8549 28.9298H27.8571Z" fill="#190A1A"/>
<path d="M14.1428 28.928C13.8685 28.928 13.5942 28.823 13.3842 28.6151C12.9663 28.1973 12.9663 27.518 13.3842 27.1001L27.0985 13.3837C27.5163 12.9658 28.1956 12.9658 28.6135 13.3837C29.0313 13.8016 29.0313 14.4808 28.6135 14.8987L14.9013 28.6151C14.6913 28.8251 14.4171 28.928 14.1428 28.928Z" fill="#190A1A"/>
</svg>
