<svg width="32" height="32" viewBox="0 0 32 32" fill="none" xmlns="http://www.w3.org/2000/svg">
<path d="M13.1636 26.4272V18.2515C13.1636 17.9969 13.2422 17.791 13.3994 17.6338C13.5566 17.4766 13.7663 17.3979 14.0283 17.3979H18.79C19.0446 17.3979 19.2505 17.4766 19.4077 17.6338C19.5649 17.791 19.6436 17.9969 19.6436 18.2515V26.4272H13.1636ZM8.77246 27.584C7.97135 27.584 7.34619 27.3669 6.89697 26.9326C6.45524 26.4984 6.23438 25.8882 6.23438 25.1021V12.6924L8.04248 11.4683V24.6416C8.04248 25.0085 8.13607 25.2892 8.32324 25.4839C8.5179 25.6785 8.79492 25.7759 9.1543 25.7759H23.5854C23.9448 25.7759 24.2181 25.6785 24.4053 25.4839C24.5924 25.2892 24.686 25.0085 24.686 24.6416V11.457L26.4941 12.6924V25.1021C26.4941 25.8882 26.2733 26.4984 25.8315 26.9326C25.3898 27.3669 24.7684 27.584 23.9673 27.584H8.77246ZM3 15.0845C3 14.7925 3.11979 14.5492 3.35938 14.3545L15.0615 4.52783C15.4808 4.17594 15.93 4 16.4092 4C16.8958 4 17.3488 4.17594 17.7681 4.52783L29.459 14.3545C29.6911 14.5492 29.8071 14.8037 29.8071 15.1182C29.8071 15.3877 29.7135 15.6011 29.5264 15.7583C29.3392 15.908 29.1146 15.9829 28.8525 15.9829C28.6953 15.9829 28.5493 15.9455 28.4146 15.8706C28.2873 15.7957 28.1675 15.7134 28.0552 15.6235L16.8135 6.18994C16.6862 6.07764 16.5514 6.02148 16.4092 6.02148C16.2744 6.02148 16.1434 6.07764 16.0161 6.18994L4.77441 15.6235C4.65462 15.7134 4.52734 15.7957 4.39258 15.8706C4.2653 15.9455 4.12305 15.9829 3.96582 15.9829C3.66634 15.9829 3.4305 15.8931 3.2583 15.7134C3.0861 15.5262 3 15.3166 3 15.0845ZM23.6753 10.0195V7.21191C23.6753 6.96484 23.7502 6.77018 23.8999 6.62793C24.0496 6.47819 24.2443 6.40332 24.4839 6.40332H25.6855C25.9326 6.40332 26.1273 6.47819 26.2695 6.62793C26.4193 6.77018 26.4941 6.96484 26.4941 7.21191V12.4004L23.6753 10.0195Z" fill="#190A1A"/>
</svg>
