<svg width="20" height="20" viewBox="0 0 20 20" fill="none" xmlns="http://www.w3.org/2000/svg">
<path d="M9.9999 1.42969C5.27311 1.42969 1.42847 5.27433 1.42847 10.0011C1.42847 14.7279 5.27311 18.5725 9.9999 18.5725C14.7267 18.5725 18.5713 14.7279 18.5713 10.0011C18.5713 5.27433 14.7267 1.42969 9.9999 1.42969ZM10.8035 13.4833C10.8035 13.9279 10.4445 14.2868 9.9999 14.2868C9.55525 14.2868 9.19632 13.9279 9.19632 13.4833V9.01897C9.19632 8.57433 9.55525 8.2154 9.9999 8.2154C10.4445 8.2154 10.8035 8.57433 10.8035 9.01897V13.4833ZM9.9999 7.23326C9.50704 7.23326 9.10704 6.83326 9.10704 6.3404C9.10704 5.84754 9.50704 5.44754 9.9999 5.44754C10.4928 5.44754 10.8928 5.84754 10.8928 6.3404C10.8928 6.83326 10.4928 7.23326 9.9999 7.23326Z" fill="#190A1A"/>
</svg>
