<svg width="16" height="16" viewBox="0 0 16 16" fill="none" xmlns="http://www.w3.org/2000/svg">
<path d="M7.99972 1.14258C4.21829 1.14258 1.14258 4.21829 1.14258 7.99972C1.14258 11.7811 4.21829 14.8569 7.99972 14.8569C11.7811 14.8569 14.8569 11.7811 14.8569 7.99972C14.8569 4.21829 11.7811 1.14258 7.99972 1.14258ZM10.7397 10.7397C10.614 10.8654 10.4497 10.9283 10.2854 10.9283C10.1211 10.9283 9.95686 10.8654 9.83115 10.7397L5.25972 6.16829C5.00829 5.91686 5.00829 5.50972 5.25972 5.25972C5.51115 5.00972 5.91829 5.00829 6.16829 5.25972L10.7397 9.83115C10.9911 10.0826 10.9911 10.4897 10.7397 10.7397Z" fill="#C91129"/>
</svg>
