<svg width="12" height="12" viewBox="0 0 12 12" fill="none" xmlns="http://www.w3.org/2000/svg">
<g id="icon_plus">
<path id="Vector" d="M10.2861 5.57136H6.42899V1.71422C6.42899 1.47743 6.2372 1.28564 6.00042 1.28564C5.76363 1.28564 5.57185 1.47743 5.57185 1.71422V5.57136H1.7147C1.47792 5.57136 1.28613 5.76314 1.28613 5.99993C1.28613 6.23672 1.47792 6.4285 1.7147 6.4285H5.57185V10.2856C5.57185 10.5224 5.76363 10.7142 6.00042 10.7142C6.2372 10.7142 6.42899 10.5224 6.42899 10.2856V6.4285H10.2861C10.5229 6.4285 10.7147 6.23672 10.7147 5.99993C10.7147 5.76314 10.5229 5.57136 10.2861 5.57136Z" fill="white"/>
</g>
</svg>
