<svg width="24" height="24" viewBox="0 0 24 24" fill="none" xmlns="http://www.w3.org/2000/svg">
<path d="M12.0006 22.2863C6.32842 22.2863 1.71484 17.6727 1.71484 12.0006C1.71484 6.32842 6.32842 1.71484 12.0006 1.71484C17.6727 1.71484 22.2863 6.32842 22.2863 12.0006C22.2863 17.6727 17.6727 22.2863 12.0006 22.2863ZM12.0006 3.42913C7.27342 3.42913 3.42913 7.27342 3.42913 12.0006C3.42913 16.7277 7.27342 20.572 12.0006 20.572C16.7277 20.572 20.572 16.7277 20.572 12.0006C20.572 7.27342 16.7277 3.42913 12.0006 3.42913Z" fill="#BAB5BA"/>
<path d="M10.4213 15.2194C10.4213 15.2194 10.4084 15.2194 10.402 15.2194C9.69269 15.2152 9.03484 14.9259 8.54841 14.4094L7.01412 12.7787C6.69055 12.4337 6.70555 11.8916 7.05055 11.568C7.39555 11.2444 7.93769 11.2594 8.26126 11.6044L9.79555 13.2352C9.95841 13.4066 10.177 13.503 10.4127 13.5052C10.642 13.5116 10.8691 13.4152 11.0341 13.2437L15.3134 8.83158C15.6434 8.49087 16.1855 8.4823 16.5263 8.8123C16.867 9.1423 16.8734 9.68444 16.5455 10.0252L12.2663 14.4373C11.7777 14.9409 11.122 15.2194 10.4213 15.2194Z" fill="#BAB5BA"/>
</svg>
