<svg width="16" height="16" viewBox="0 0 16 16" fill="none" xmlns="http://www.w3.org/2000/svg">
<path d="M14.9295 11.7134L9.4852 2.28488C9.1752 1.74773 8.62091 1.42773 8.00091 1.42773C7.38091 1.42773 6.82663 1.74773 6.51663 2.28488L1.07234 11.7134C0.762344 12.2506 0.762344 12.8906 1.07234 13.4277C1.38234 13.9649 1.93663 14.2849 2.55663 14.2849H13.4438C14.0638 14.2849 14.6181 13.9649 14.9281 13.4277C15.2381 12.8906 15.2381 12.2506 14.9281 11.7134H14.9295ZM8.00091 12.3563C7.6452 12.3563 7.35806 12.0692 7.35806 11.7134C7.35806 11.3577 7.6452 11.0706 8.00091 11.0706C8.35663 11.0706 8.64377 11.3577 8.64377 11.7134C8.64377 12.0692 8.35663 12.3563 8.00091 12.3563ZM8.64377 9.57059C8.64377 9.92631 8.35663 10.2134 8.00091 10.2134C7.6452 10.2134 7.35806 9.92631 7.35806 9.57059V5.99916C7.35806 5.64345 7.6452 5.35631 8.00091 5.35631C8.35663 5.35631 8.64377 5.64345 8.64377 5.99916V9.57059Z" fill="#190A1A"/>
</svg>
