<svg width="32" height="32" viewBox="0 0 32 32" fill="none" xmlns="http://www.w3.org/2000/svg">
<path d="M11.7056 14.23C11.451 14.23 11.2264 14.1364 11.0317 13.9492C10.8446 13.7546 10.751 13.5299 10.751 13.2754C10.751 13.0133 10.8446 12.7887 11.0317 12.6016C11.2264 12.4144 11.451 12.3208 11.7056 12.3208C11.9676 12.3208 12.1922 12.4144 12.3794 12.6016C12.5666 12.7812 12.6602 13.0059 12.6602 13.2754C12.6602 13.5374 12.5666 13.762 12.3794 13.9492C12.1922 14.1364 11.9676 14.23 11.7056 14.23ZM11.7056 18.2056C11.4435 18.2056 11.2189 18.1157 11.0317 17.936C10.8446 17.7489 10.751 17.5205 10.751 17.251C10.751 16.9964 10.8446 16.7756 11.0317 16.5884C11.2189 16.4012 11.4435 16.3076 11.7056 16.3076C11.9676 16.3076 12.1922 16.4012 12.3794 16.5884C12.5666 16.7681 12.6602 16.9889 12.6602 17.251C12.6602 17.5205 12.5666 17.7489 12.3794 17.936C12.1922 18.1157 11.9676 18.2056 11.7056 18.2056ZM11.7056 22.417C11.451 22.417 11.2264 22.3234 11.0317 22.1362C10.8446 21.9416 10.751 21.717 10.751 21.4624C10.751 21.2004 10.8446 20.9757 11.0317 20.7886C11.2264 20.6014 11.451 20.5078 11.7056 20.5078C11.9676 20.5078 12.1922 20.6014 12.3794 20.7886C12.5666 20.9683 12.6602 21.1929 12.6602 21.4624C12.6602 21.7244 12.5666 21.9491 12.3794 22.1362C12.1922 22.3234 11.9676 22.417 11.7056 22.417ZM14.7041 13.9717C14.5094 13.9717 14.341 13.9043 14.1987 13.7695C14.064 13.6273 13.9966 13.4626 13.9966 13.2754C13.9966 13.0807 14.064 12.916 14.1987 12.7812C14.341 12.639 14.5094 12.5679 14.7041 12.5679H21.4424C21.6296 12.5679 21.7905 12.639 21.9253 12.7812C22.0675 12.916 22.1387 13.0807 22.1387 13.2754C22.1387 13.4626 22.0675 13.6273 21.9253 13.7695C21.7905 13.9043 21.6296 13.9717 21.4424 13.9717H14.7041ZM14.7041 17.9585C14.502 17.9585 14.3335 17.8911 14.1987 17.7563C14.064 17.6141 13.9966 17.4456 13.9966 17.251C13.9966 17.0638 14.064 16.9028 14.1987 16.7681C14.3335 16.6333 14.502 16.5659 14.7041 16.5659H21.4424C21.637 16.5659 21.8018 16.6333 21.9365 16.7681C22.0713 16.9028 22.1387 17.0638 22.1387 17.251C22.1387 17.4456 22.0713 17.6141 21.9365 17.7563C21.8018 17.8911 21.637 17.9585 21.4424 17.9585H14.7041ZM14.7041 22.1587C14.5094 22.1587 14.341 22.0913 14.1987 21.9565C14.064 21.8143 13.9966 21.6496 13.9966 21.4624C13.9966 21.2677 14.064 21.103 14.1987 20.9683C14.3335 20.8335 14.502 20.7661 14.7041 20.7661H21.4424C21.637 20.7661 21.8018 20.8335 21.9365 20.9683C22.0713 21.103 22.1387 21.2677 22.1387 21.4624C22.1387 21.6496 22.0675 21.8143 21.9253 21.9565C21.7905 22.0913 21.6296 22.1587 21.4424 22.1587H14.7041ZM10.4814 29.2114C9.32096 29.2114 8.44873 28.9157 7.86475 28.3242C7.28825 27.7402 7 26.8605 7 25.6851V8.65967C7 7.50667 7.27702 6.6307 7.83105 6.03174C8.39258 5.43278 9.23486 5.1333 10.3579 5.1333H10.6274C10.62 5.17822 10.6162 5.22689 10.6162 5.2793C10.6162 5.32422 10.6162 5.36914 10.6162 5.41406V6.4248C10.6162 6.63444 10.6312 6.80664 10.6611 6.94141H10.3916C9.86751 6.94141 9.4707 7.09863 9.20117 7.41309C8.93913 7.72754 8.80811 8.15055 8.80811 8.68213V25.6626C8.80811 26.2241 8.9541 26.6546 9.24609 26.9541C9.54557 27.2536 9.9873 27.4033 10.5713 27.4033H22.3184C22.9023 27.4033 23.3403 27.2536 23.6323 26.9541C23.9318 26.6546 24.0815 26.2241 24.0815 25.6626V8.68213C24.0815 8.15055 23.9468 7.72754 23.6772 7.41309C23.4152 7.09863 23.0221 6.94141 22.498 6.94141H22.2285C22.2585 6.80664 22.2734 6.63444 22.2734 6.4248V5.41406C22.2734 5.36914 22.2734 5.32422 22.2734 5.2793C22.2734 5.22689 22.2697 5.17822 22.2622 5.1333H22.5317C23.6548 5.1333 24.4933 5.43278 25.0474 6.03174C25.6089 6.6307 25.8896 7.50667 25.8896 8.65967V25.6851C25.8896 26.8605 25.5977 27.7402 25.0137 28.3242C24.4372 28.9157 23.5687 29.2114 22.4082 29.2114H10.4814ZM12.9746 7.70508C12.6452 7.70508 12.3869 7.60775 12.1997 7.41309C12.02 7.21842 11.9302 6.94515 11.9302 6.59326V5.41406C11.9302 5.06217 12.02 4.7889 12.1997 4.59424C12.3869 4.39958 12.6452 4.30225 12.9746 4.30225H14.0078C14.0452 3.66585 14.2961 3.12305 14.7603 2.67383C15.2319 2.22461 15.7935 2 16.4448 2C17.0962 2 17.654 2.22461 18.1182 2.67383C18.5898 3.12305 18.8444 3.66585 18.8818 4.30225H19.915C20.2445 4.30225 20.499 4.39958 20.6787 4.59424C20.8659 4.7889 20.9595 5.06217 20.9595 5.41406V6.59326C20.9595 6.94515 20.8659 7.21842 20.6787 7.41309C20.499 7.60775 20.2445 7.70508 19.915 7.70508H12.9746ZM16.4448 5.36914C16.7144 5.36914 16.9427 5.27181 17.1299 5.07715C17.3245 4.88249 17.4219 4.65413 17.4219 4.39209C17.4219 4.11507 17.3245 3.88298 17.1299 3.6958C16.9427 3.50114 16.7144 3.40381 16.4448 3.40381C16.1753 3.40381 15.9432 3.50114 15.7485 3.6958C15.5614 3.88298 15.4678 4.11507 15.4678 4.39209C15.4678 4.65413 15.5614 4.88249 15.7485 5.07715C15.9432 5.27181 16.1753 5.36914 16.4448 5.36914Z" fill="#190A1A"/>
</svg>
