<svg width="24" height="24" viewBox="0 0 24 24" fill="none" xmlns="http://www.w3.org/2000/svg">
<path d="M20.1663 21.4285H3.83348C2.90348 21.4285 2.07205 20.9485 1.60705 20.1428C1.14205 19.3371 1.14205 18.3771 1.60705 17.5714L9.77348 3.42854C10.2385 2.62282 11.0699 2.14282 11.9999 2.14282C12.9299 2.14282 13.7613 2.62282 14.2263 3.42854L22.3928 17.5714C22.8578 18.3771 22.8578 19.3371 22.3928 20.1428C21.9278 20.9485 21.0963 21.4285 20.1663 21.4285ZM11.2585 4.28568L3.09205 18.4285C2.86919 18.8143 3.01705 19.1571 3.09205 19.2857C3.16705 19.4143 3.38777 19.7143 3.83348 19.7143H20.1642C20.6099 19.7143 20.8328 19.4143 20.9056 19.2857C20.9806 19.1571 21.1285 18.8143 20.9056 18.4285L12.7413 4.28568C12.5185 3.89997 12.1478 3.85711 11.9999 3.85711C11.8521 3.85711 11.4813 3.89997 11.2585 4.28568Z" fill="white"/>
<path d="M12.0002 15.4286C11.5266 15.4286 11.1431 15.045 11.1431 14.5715V9.21432C11.1431 8.74075 11.5266 8.35718 12.0002 8.35718C12.4738 8.35718 12.8574 8.74075 12.8574 9.21432V14.5715C12.8574 15.045 12.4738 15.4286 12.0002 15.4286Z" fill="white"/>
<path d="M12.0002 18.2143C12.4736 18.2143 12.8574 17.8305 12.8574 17.3571C12.8574 16.8838 12.4736 16.5 12.0002 16.5C11.5268 16.5 11.1431 16.8838 11.1431 17.3571C11.1431 17.8305 11.5268 18.2143 12.0002 18.2143Z" fill="white"/>
</svg>
