<svg width="24" height="24" viewBox="0 0 24 24" fill="none" xmlns="http://www.w3.org/2000/svg">
<path d="M12.0006 1.71484C6.32842 1.71484 1.71484 6.32842 1.71484 12.0006C1.71484 17.6727 6.32842 22.2863 12.0006 22.2863C17.6727 22.2863 22.2863 17.6727 22.2863 12.0006C22.2863 6.32842 17.6727 1.71484 12.0006 1.71484ZM16.1106 14.7477C16.4877 15.1248 16.4877 15.7356 16.1106 16.1106C15.922 16.2991 15.6756 16.3934 15.4291 16.3934C15.1827 16.3934 14.9363 16.2991 14.7477 16.1106L12.0006 13.3634L9.25342 16.1106C9.06484 16.2991 8.81842 16.3934 8.57199 16.3934C8.32556 16.3934 8.07913 16.2991 7.89056 16.1106C7.51342 15.7334 7.51342 15.1227 7.89056 14.7477L10.6377 12.0006L7.89056 9.25342C7.51342 8.87627 7.51342 8.26556 7.89056 7.89056C8.2677 7.51556 8.87842 7.51342 9.25342 7.89056L12.0006 10.6377L14.7477 7.89056C15.1248 7.51342 15.7356 7.51342 16.1106 7.89056C16.4856 8.2677 16.4877 8.87842 16.1106 9.25342L13.3634 12.0006L16.1106 14.7477Z" fill="#A39DA3"/>
</svg>
