<svg width="16" height="16" viewBox="0 0 16 16" fill="none" xmlns="http://www.w3.org/2000/svg">
<path d="M14.9285 11.7142L9.48422 2.28561C9.17422 1.74847 8.61994 1.42847 7.99994 1.42847C7.37994 1.42847 6.82565 1.74847 6.51565 2.28561L1.07137 11.7142C0.761367 12.2513 0.761367 12.8913 1.07137 13.4285C1.38137 13.9656 1.93565 14.2856 2.55565 14.2856H13.4428C14.0628 14.2856 14.6171 13.9656 14.9271 13.4285C15.2371 12.8913 15.2371 12.2513 14.9271 11.7142H14.9285ZM7.99994 12.357C7.64422 12.357 7.35708 12.0699 7.35708 11.7142C7.35708 11.3585 7.64422 11.0713 7.99994 11.0713C8.35565 11.0713 8.6428 11.3585 8.6428 11.7142C8.6428 12.0699 8.35565 12.357 7.99994 12.357ZM8.6428 9.57132C8.6428 9.92704 8.35565 10.2142 7.99994 10.2142C7.64422 10.2142 7.35708 9.92704 7.35708 9.57132V5.9999C7.35708 5.64418 7.64422 5.35704 7.99994 5.35704C8.35565 5.35704 8.6428 5.64418 8.6428 5.9999V9.57132Z" fill="#E67711"/>
</svg>
